<svg width="90" height="90" viewBox="0 0 90 90" fill="none" xmlns="http://www.w3.org/2000/svg">
<circle cx="45" cy="45" r="45" fill="#1CCA40"/>
<path fill-rule="evenodd" clip-rule="evenodd" d="M55.3103 49.4663C54.7488 49.1869 51.9963 47.8407 51.4838 47.6532C50.9714 47.4675 50.5983 47.3757 50.2234 47.9344C49.8504 48.4894 48.7784 49.7457 48.4524 50.1169C48.1246 50.49 47.7987 50.535 47.2391 50.2575C46.6796 49.9763 44.8747 49.3894 42.7363 47.4919C41.0727 46.0144 39.9479 44.19 39.622 43.6313C39.2961 43.0744 39.5862 42.7725 39.8669 42.495C40.1194 42.2457 40.4265 41.8444 40.7072 41.52C40.9879 41.1938 41.0802 40.9613 41.2668 40.5882C41.4552 40.2169 41.361 39.8925 41.2197 39.6132C41.0802 39.3338 39.9611 36.5907 39.4939 35.4751C39.0398 34.3894 38.5783 34.5376 38.2354 34.5188C37.9075 34.5038 37.5345 34.5001 37.1615 34.5001C36.7884 34.5001 36.1818 34.6388 35.6693 35.1976C35.155 35.7544 33.7099 37.1026 33.7099 39.8457C33.7099 42.5869 35.7145 45.2363 35.9953 45.6094C36.276 45.9807 39.9423 51.6094 45.5586 54.0225C46.8962 54.5963 47.9381 54.9394 48.7501 55.1944C50.0915 55.62 51.3124 55.56 52.277 55.4156C53.3509 55.2563 55.5891 54.0675 56.0563 52.7663C56.5217 51.465 56.5217 50.3494 56.3823 50.1169C56.2429 49.8844 55.8698 49.7457 55.3084 49.4663H55.3103ZM45.0951 63.3469H45.0876C41.7518 63.3475 38.4772 62.4551 35.6071 60.7631L34.9289 60.3619L27.8789 62.2031L29.761 55.3631L29.3183 54.6619C27.4534 51.7076 26.4664 48.2884 26.4715 44.7994C26.4753 34.5807 34.829 26.2669 45.1026 26.2669C50.0764 26.2669 54.7526 28.1982 58.2682 31.7007C60.0022 33.4193 61.3766 35.463 62.3118 37.7136C63.247 39.9642 63.7246 42.3771 63.7168 44.8125C63.713 55.0313 55.3592 63.3469 45.0951 63.3469ZM60.9435 29.0401C58.8677 26.9606 56.3978 25.3117 53.677 24.1891C50.9562 23.0664 48.0386 22.4924 45.0932 22.5001C32.7453 22.5001 22.6922 32.5032 22.6884 44.7975C22.6827 48.7102 23.714 52.5551 25.6783 55.9444L22.5 67.5L34.3769 64.3988C37.6624 66.1802 41.3442 67.1137 45.0857 67.1138H45.0951C57.443 67.1138 67.4961 57.1106 67.4999 44.8144C67.509 41.8843 66.9342 38.9815 65.8088 36.2739C64.6835 33.5662 63.0298 31.1076 60.9435 29.0401Z" fill="white"/>
</svg>
