<svg width="51" height="9" viewBox="0 0 51 9" fill="none" xmlns="http://www.w3.org/2000/svg">
<path d="M4.79962 0.499512L5.69161 3.24476H8.57813L6.24289 4.94142L7.13487 7.68667L4.79962 5.99001L2.46437 7.68667L3.35636 4.94142L1.02111 3.24476H3.90764L4.79962 0.499512Z" fill="#DAAA00"/>
<path d="M15.2288 0.499756L16.1208 3.24501H19.0073L16.6721 4.94166L17.5641 7.68691L15.2288 5.99025L12.8936 7.68691L13.7856 4.94166L11.4503 3.24501H14.3368L15.2288 0.499756Z" fill="#DAAA00"/>
<path d="M25.6575 0.499756L26.5495 3.24501H29.436L27.1008 4.94166L27.9928 7.68691L25.6575 5.99025L23.3223 7.68691L24.2143 4.94166L21.879 3.24501H24.7655L25.6575 0.499756Z" fill="#DAAA00"/>
<path d="M36.0867 0.499756L36.9787 3.24501H39.8652L37.53 4.94166L38.422 7.68691L36.0867 5.99025L33.7515 7.68691L34.6435 4.94166L32.3082 3.24501H35.1947L36.0867 0.499756Z" fill="#DAAA00"/>
<path d="M46.5159 0.499756L47.4079 3.24501H50.2944L47.9592 4.94166L48.8512 7.68691L46.5159 5.99025L44.1807 7.68691L45.0727 4.94166L42.7374 3.24501H45.6239L46.5159 0.499756Z" fill="#DAAA00"/>
</svg>
