<svg width="26" height="25" viewBox="0 0 26 25" fill="none" xmlns="http://www.w3.org/2000/svg">
<path d="M13.1277 3.06968C16.4334 3.06968 16.8249 3.08348 18.125 3.13866C19.3332 3.18925 19.9857 3.38239 20.4206 3.54335C20.9958 3.75488 21.4114 4.01241 21.8415 4.42169C22.2765 4.83557 22.5423 5.22645 22.7646 5.77369C22.9338 6.18757 23.1367 6.81299 23.1899 7.95805C23.2479 9.19969 23.2624 9.57218 23.2624 12.7131C23.2624 15.8585 23.2479 16.231 23.1899 17.4681C23.1367 18.6177 22.9338 19.2385 22.7646 19.6524C22.5423 20.1997 22.2716 20.5951 21.8415 21.0044C21.4065 21.4183 20.9958 21.6712 20.4206 21.8828C19.9857 22.0437 19.3284 22.2369 18.125 22.2874C16.8201 22.3426 16.4286 22.3564 13.1277 22.3564C9.82198 22.3564 9.43051 22.3426 8.13045 22.2874C6.92221 22.2369 6.26976 22.0437 5.8348 21.8828C5.25968 21.6712 4.84404 21.4137 4.41391 21.0044C3.97895 20.5905 3.71313 20.1997 3.49082 19.6524C3.32167 19.2385 3.11868 18.6131 3.06552 17.4681C3.00752 16.2264 2.99303 15.8539 2.99303 12.7131C2.99303 9.56758 3.00752 9.19509 3.06552 7.95805C3.11868 6.80839 3.32167 6.18757 3.49082 5.77369C3.71313 5.22645 3.98378 4.83097 4.41391 4.42169C4.84888 4.00781 5.25968 3.75488 5.8348 3.54335C6.26976 3.38239 6.92704 3.18925 8.13045 3.13866C9.43051 3.08348 9.82198 3.06968 13.1277 3.06968ZM13.1277 0.949707C9.76882 0.949707 9.34835 0.963503 8.02896 1.01869C6.71439 1.07387 5.81063 1.27621 5.0277 1.56593C4.21093 1.86944 3.51982 2.26952 2.83354 2.92713C2.14243 3.58014 1.72196 4.23774 1.40299 5.01032C1.09851 5.7599 0.885861 6.61524 0.827865 7.86608C0.76987 9.12611 0.755371 9.52619 0.755371 12.7223C0.755371 15.9183 0.76987 16.3184 0.827865 17.5738C0.885861 18.8247 1.09851 19.6846 1.40299 20.4296C1.72196 21.2068 2.14243 21.8644 2.83354 22.5174C3.51982 23.1704 4.21093 23.5751 5.02286 23.874C5.81063 24.1637 6.70956 24.366 8.02412 24.4212C9.34352 24.4764 9.76398 24.4902 13.1229 24.4902C16.4818 24.4902 16.9022 24.4764 18.2216 24.4212C19.5362 24.366 20.44 24.1637 21.2229 23.874C22.0348 23.5751 22.7259 23.1704 23.4122 22.5174C24.0985 21.8644 24.5238 21.2068 24.8379 20.4342C25.1424 19.6846 25.3551 18.8293 25.4131 17.5784C25.4711 16.323 25.4856 15.9229 25.4856 12.7269C25.4856 9.53079 25.4711 9.13071 25.4131 7.87528C25.3551 6.62444 25.1424 5.76449 24.8379 5.01951C24.5335 4.23774 24.113 3.58014 23.4219 2.92713C22.7356 2.27412 22.0445 1.86944 21.2326 1.57052C20.4448 1.28081 19.5459 1.07847 18.2313 1.02329C16.9071 0.963503 16.4866 0.949707 13.1277 0.949707Z" fill="white"/>
<path d="M13.1278 6.6748C9.61907 6.6748 6.77246 9.38341 6.77246 12.722C6.77246 16.0607 9.61907 18.7693 13.1278 18.7693C16.6365 18.7693 19.4831 16.0607 19.4831 12.722C19.4831 9.38341 16.6365 6.6748 13.1278 6.6748ZM13.1278 16.6447C10.8515 16.6447 9.00528 14.888 9.00528 12.722C9.00528 10.5561 10.8515 8.79938 13.1278 8.79938C15.4041 8.79938 17.2503 10.5561 17.2503 12.722C17.2503 14.888 15.4041 16.6447 13.1278 16.6447Z" fill="white"/>
<path d="M21.2182 6.43571C21.2182 7.21748 20.5512 7.8475 19.7344 7.8475C18.9128 7.8475 18.2507 7.21289 18.2507 6.43571C18.2507 5.65394 18.9177 5.02393 19.7344 5.02393C20.5512 5.02393 21.2182 5.65854 21.2182 6.43571Z" fill="white"/>
</svg>
