<svg width="26" height="25" viewBox="0 0 26 25" fill="none" xmlns="http://www.w3.org/2000/svg">
<ellipse cx="12.9949" cy="12.7451" rx="8.55736" ry="4.95164" fill="#DAAA00"/>
<path d="M24.2911 10.0451C23.8514 9.62726 23.4 9.18797 23.2264 8.81297C23.0528 8.43797 23.0644 7.88083 23.0528 7.31297C23.0413 6.27369 23.0181 5.0844 22.127 4.2594C21.2359 3.4344 19.9514 3.41297 18.8288 3.40226C18.2154 3.39155 17.5905 3.38083 17.2086 3.24155C16.8267 3.10226 16.3291 2.66297 15.8778 2.25583C15.0792 1.54869 14.165 0.745117 12.9614 0.745117C11.7579 0.745117 10.8436 1.54869 10.0451 2.25583C9.59378 2.66297 9.1193 3.08083 8.71425 3.24155C8.30921 3.40226 7.70743 3.39155 7.09407 3.40226C5.97152 3.41297 4.68695 3.4344 3.79585 4.2594C2.90475 5.0844 2.8816 6.27369 2.87003 7.31297C2.85846 7.88083 2.84689 8.4594 2.69644 8.81297C2.546 9.16655 2.07152 9.62726 1.63175 10.0451C0.867953 10.7844 0 11.6308 0 12.7451C0 13.8594 0.867953 14.7058 1.63175 15.4451C2.07152 15.863 2.52285 16.3023 2.69644 16.6773C2.87003 17.0523 2.85846 17.6094 2.87003 18.1773C2.8816 19.2165 2.90475 20.4058 3.79585 21.2308C4.68695 22.0558 5.97152 22.0773 7.09407 22.088C7.70743 22.0987 8.33235 22.1094 8.71425 22.2487C9.09615 22.388 9.59378 22.8273 10.0451 23.2344C10.8436 23.9415 11.7579 24.7451 12.9614 24.7451C14.165 24.7451 15.0792 23.9415 15.8778 23.2344C16.3291 22.8273 16.8036 22.4094 17.2086 22.2487C17.6137 22.088 18.2154 22.0987 18.8288 22.088C19.9514 22.0773 21.2359 22.0558 22.127 21.2308C23.0181 20.4058 23.0413 19.2165 23.0528 18.1773C23.0644 17.6094 23.076 17.0308 23.2264 16.6773C23.3769 16.3237 23.8514 15.863 24.2911 15.4451C25.0549 14.7058 25.9229 13.8594 25.9229 12.7451C25.9229 11.6308 25.0549 10.7844 24.2911 10.0451V10.0451ZM18.6899 10.7951L11.9083 16.7951C11.733 16.9478 11.5009 17.0322 11.2602 17.0308C11.0231 17.0317 10.7949 16.9471 10.6237 16.7951L7.23294 13.7951C7.1389 13.7192 7.06241 13.6264 7.00808 13.5223C6.95375 13.4183 6.92271 13.3052 6.91681 13.1897C6.91091 13.0743 6.93028 12.959 6.97376 12.8507C7.01723 12.7424 7.08392 12.6433 7.1698 12.5594C7.25568 12.4756 7.35899 12.4087 7.47351 12.3627C7.58803 12.3168 7.71141 12.2928 7.83621 12.2921C7.96102 12.2914 8.08469 12.3141 8.19978 12.3588C8.31488 12.4036 8.41901 12.4693 8.50594 12.5523L11.2602 14.9844L17.4169 9.55226C17.5969 9.40685 17.8307 9.3315 18.0693 9.34195C18.308 9.35241 18.533 9.44786 18.6974 9.60835C18.8618 9.76884 18.9528 9.98195 18.9514 10.2031C18.95 10.4243 18.8563 10.6364 18.6899 10.7951Z" fill="white"/>
</svg>
