<svg width="265" height="25" viewBox="0 0 265 25" fill="none" xmlns="http://www.w3.org/2000/svg">
<path d="M0 0.454094H8.16634C11.9223 0.454094 14.7938 1.239 16.782 2.8088C18.7688 4.3786 19.7629 6.66028 19.7629 9.65386C19.7629 12.8665 18.787 15.311 16.8367 16.9889C14.8864 18.6683 12.0501 19.5065 8.33061 19.5065H0.00140549V0.452706L0 0.454094ZM8.71113 17.8202C10.8159 17.8202 12.4039 17.135 13.4739 15.7646C14.5438 14.3942 15.0802 12.3582 15.0802 9.65386C15.0802 7.20368 14.5396 5.33902 13.4613 4.05987C12.3815 2.78072 10.7976 2.14044 8.71113 2.14044H4.62796V17.8188H8.71113V17.8202Z" fill="#024059"/>
<path d="M22.786 6.17026H26.8144V8.91951C27.1598 7.95769 27.699 7.21351 28.4348 6.68696C29.1691 6.16042 30.0902 5.89785 31.1981 5.89785C31.5603 5.89785 31.8692 5.93436 32.1234 6.00597L31.8777 8.37471C31.587 8.23009 31.2065 8.15708 30.7347 8.15708C29.3924 8.15708 28.4025 8.70188 27.7678 9.79007C27.1331 10.8783 26.8144 12.1588 26.8144 13.6275V19.5065H22.786V6.16885V6.17026Z" fill="#024059"/>
<path d="M33.741 19.2763C33.3871 18.9407 33.2102 18.5096 33.2102 17.9831C33.2102 17.4565 33.3871 17.0255 33.741 16.6899C34.0948 16.3543 34.5525 16.1858 35.1156 16.1858C35.6786 16.1858 36.1364 16.3543 36.4902 16.6899C36.844 17.0255 37.021 17.4565 37.021 17.9831C37.021 18.5096 36.844 18.9407 36.4902 19.2763C36.1364 19.6118 35.6786 19.7803 35.1156 19.7803C34.5525 19.7803 34.0948 19.6118 33.741 19.2763Z" fill="#024059"/>
<path d="M54.248 2.14184H46.354V0.454095H66.7418V2.14184H58.8478V19.5079H54.248V2.14184Z" fill="#024059"/>
<path d="M69.7662 0.411981H73.7946V8.37471C74.2117 7.61228 74.8519 7.00991 75.714 6.5648C76.5762 6.1211 77.5422 5.89785 78.6135 5.89785C80.3911 5.89785 81.7939 6.35139 82.8189 7.25845C83.8439 8.1655 84.3564 9.41797 84.3564 11.0145V19.5065H80.328V10.7687C80.328 8.46458 79.3662 7.3118 77.4425 7.3118C76.3164 7.3118 75.4276 7.72881 74.7747 8.56426C74.1218 9.39971 73.7946 10.5244 73.7946 11.9398V19.5065H69.7662V0.411981Z" fill="#024059"/>
<path d="M88.0184 3.96719C87.5915 3.58106 87.3795 3.09103 87.3795 2.49568C87.3795 1.90034 87.5929 1.4103 88.0184 1.02417C88.4438 0.638042 88.9872 0.445679 89.6471 0.445679C90.3071 0.445679 90.8491 0.638042 91.2759 1.02417C91.7014 1.4103 91.9148 1.90034 91.9148 2.49568C91.9148 3.09103 91.7014 3.58106 91.2759 3.96719C90.8491 4.35332 90.3071 4.54569 89.6471 4.54569C88.9872 4.54569 88.4452 4.35332 88.0184 3.96719ZM87.6323 6.17026H91.6607V19.5079H87.6323V6.17026Z" fill="#024059"/>
<path d="M96.3939 18.7048C95.4223 17.9887 94.9379 16.9763 94.9379 15.6691C94.9379 14.2903 95.5094 13.2287 96.6523 12.4846C97.7953 11.7404 99.4465 11.3683 101.606 11.3683H105.172V10.4697C105.172 9.45308 104.89 8.67379 104.329 8.12899C103.766 7.58419 102.958 7.3118 101.907 7.3118C100.855 7.3118 100.05 7.57578 99.4423 8.10091C98.8343 8.62746 98.458 9.39831 98.3134 10.4149H95.3184C95.5178 8.94478 96.217 7.82429 97.4147 7.05343C98.6125 6.28257 100.236 5.89644 102.287 5.89644C104.536 5.89644 106.252 6.31347 107.432 7.14892C108.611 7.98437 109.201 9.19051 109.201 10.7687V15.0695C109.201 16.7208 109.337 18.1993 109.609 19.5065H105.853C105.672 18.8171 105.545 18.2091 105.473 17.6826C104.946 18.4268 104.271 18.9617 103.445 19.2889C102.62 19.616 101.725 19.7789 100.765 19.7789C98.8231 19.7789 97.367 19.4209 96.3968 18.7034L96.3939 18.7048ZM104.233 17.5071C104.859 16.8991 105.172 16.0875 105.172 15.0709V12.785H102.75C101.534 12.785 100.601 13.035 99.9464 13.5334C99.2935 14.0333 98.9663 14.7354 98.9663 15.6438C98.9663 16.5523 99.1881 17.2628 99.6333 17.7261C100.077 18.1895 100.735 18.4198 101.606 18.4198C102.731 18.4198 103.607 18.1165 104.233 17.5085V17.5071Z" fill="#024059"/>
<path d="M127.644 6.71505C127.127 6.60694 126.641 6.55217 126.188 6.55217C125.588 6.55217 125.135 6.57043 124.827 6.60693C125.753 6.9706 126.469 7.48732 126.977 8.15849C127.485 8.82966 127.739 9.60051 127.739 10.4725C127.739 11.3444 127.463 12.1925 126.91 12.9086C126.356 13.6261 125.563 14.192 124.528 14.6104C123.493 15.0274 122.269 15.2366 120.854 15.2366C119.546 15.2366 118.893 15.5638 118.893 16.2167C118.893 16.3796 119.007 16.5158 119.233 16.6253C119.459 16.7334 119.754 16.7882 120.118 16.7882H121.261C123.565 16.7882 125.375 17.1111 126.69 17.7542C128.006 18.3987 128.665 19.3015 128.665 20.4627C128.665 21.8051 127.916 22.8624 126.419 23.6332C124.923 24.4041 122.904 24.7902 120.364 24.7902C118.767 24.7902 117.387 24.6442 116.226 24.3549C115.064 24.0643 114.174 23.6655 113.558 23.1572C112.94 22.6489 112.632 22.0592 112.632 21.3881C112.632 20.6256 112.995 19.9867 113.721 19.4686C114.447 18.9519 115.517 18.5756 116.932 18.3383C115.354 18.0842 114.563 17.5225 114.563 16.6506C114.563 16.2335 114.858 15.8516 115.448 15.5076C116.037 15.1636 116.796 14.9361 117.721 14.8266C116.233 14.4461 115.189 13.8971 114.591 13.1796C113.992 12.4635 113.693 11.5508 113.693 10.4444C113.693 9.53732 113.992 8.73838 114.591 8.04896C115.189 7.35954 116.021 6.82878 117.082 6.45669C118.144 6.08459 119.355 5.89926 120.716 5.89926C121.351 5.89926 121.914 5.93577 122.404 6.00738C122.894 5.60861 123.479 5.29127 124.16 5.05398C124.841 4.81808 125.562 4.70015 126.324 4.70015C126.741 4.70015 127.204 4.72683 127.713 4.78159C128.221 4.83635 128.646 4.93604 128.992 5.08066V7.177C128.611 6.97761 128.162 6.82317 127.644 6.71365V6.71505ZM117.287 19.0867C116.325 19.5669 115.845 20.217 115.845 21.0328C115.845 21.7952 116.258 22.3934 117.084 22.8287C117.909 23.264 119.038 23.4816 120.472 23.4816C121.905 23.4816 123.03 23.2316 123.847 22.7332C124.664 22.2333 125.072 21.5397 125.072 20.6509C125.072 19.9615 124.726 19.4082 124.037 18.9898C123.347 18.5728 122.412 18.3636 121.233 18.3636C119.563 18.3636 118.248 18.6037 117.286 19.0853L117.287 19.0867ZM122.934 12.962C123.451 12.4087 123.711 11.6056 123.711 10.5525C123.711 9.49941 123.453 8.69765 122.934 8.14303C122.418 7.58981 121.678 7.31321 120.716 7.31321C119.754 7.31321 119.018 7.58981 118.511 8.14303C118.003 8.69625 117.749 9.49941 117.749 10.5525C117.749 11.6056 118.003 12.4073 118.511 12.962C119.02 13.5152 119.754 13.7918 120.716 13.7918C121.678 13.7918 122.418 13.5152 122.934 12.962Z" fill="#024059"/>
<path d="M135.908 18.9365C134.656 18.3748 133.694 17.5717 133.023 16.527C132.352 15.4838 132.016 14.2537 132.016 12.8384C132.016 11.423 132.352 10.1944 133.023 9.14978C133.694 8.10653 134.656 7.30337 135.908 6.74032C137.161 6.17867 138.639 5.89644 140.345 5.89644C142.051 5.89644 143.53 6.17727 144.782 6.74032C146.035 7.30337 146.997 8.10653 147.668 9.14978C148.339 10.193 148.675 11.423 148.675 12.8384C148.675 14.2537 148.339 15.4838 147.668 16.527C146.997 17.5703 146.035 18.3734 144.782 18.9365C143.53 19.4995 142.051 19.7803 140.345 19.7803C138.639 19.7803 137.161 19.4995 135.908 18.9365ZM143.475 16.8808C144.238 15.8924 144.618 14.5444 144.618 12.8384C144.618 11.1324 144.238 9.78585 143.475 8.79594C142.713 7.80745 141.67 7.3118 140.345 7.3118C139.021 7.3118 137.977 7.80604 137.216 8.79594C136.453 9.78444 136.073 11.1324 136.073 12.8384C136.073 14.5444 136.453 15.8924 137.216 16.8808C137.978 17.8693 139.021 18.365 140.345 18.365C141.67 18.365 142.714 17.8707 143.475 16.8808Z" fill="#024059"/>
<path d="M160.525 18.0926C158.775 16.9679 157.853 15.3883 157.762 13.3565H161.437C161.527 15.026 162.077 16.2335 163.084 16.9763C164.091 17.7205 165.575 18.0926 167.535 18.0926C169.15 18.0926 170.339 17.8118 171.1 17.2487C171.862 16.6871 172.243 15.8516 172.243 14.7452C172.243 14.1456 172.107 13.6289 171.834 13.1936C171.562 12.7584 171.031 12.3596 170.242 11.9959C169.453 11.6337 168.296 11.3065 166.771 11.0159C164.376 10.5441 162.356 9.87291 160.715 9.00096C159.072 8.13041 158.252 6.84984 158.252 5.1635C158.252 1.86102 161.256 0.20978 167.262 0.20978C170.203 0.20978 172.421 0.695603 173.918 1.66585C175.415 2.63749 176.236 3.92928 176.381 5.54401H172.761C172.507 4.21993 171.907 3.28059 170.965 2.72736C170.022 2.17414 168.733 1.89753 167.1 1.89753C165.666 1.89753 164.6 2.14325 163.901 2.63188C163.202 3.12191 162.854 3.74815 162.854 4.51058C162.854 4.92761 162.976 5.29971 163.221 5.62686C163.466 5.95402 163.966 6.27557 164.718 6.5929C165.471 6.91023 166.573 7.23317 168.025 7.55893C170.075 8.01246 171.699 8.46598 172.897 8.91951C174.095 9.37304 175.057 10.0217 175.783 10.8656C176.509 11.7095 176.871 12.83 176.871 14.2271C176.871 15.3883 176.485 16.3866 175.714 17.222C174.942 18.0575 173.858 18.6922 172.46 19.1274C171.063 19.5627 169.439 19.7803 167.588 19.7803C164.63 19.7803 162.275 19.2187 160.524 18.0926H160.525Z" fill="#024059"/>
<path d="M180.534 3.96719C180.107 3.58106 179.895 3.09103 179.895 2.49568C179.895 1.90034 180.109 1.4103 180.534 1.02417C180.959 0.638042 181.503 0.445679 182.163 0.445679C182.823 0.445679 183.365 0.638042 183.792 1.02417C184.217 1.4103 184.43 1.90034 184.43 2.49568C184.43 3.09103 184.217 3.58106 183.792 3.96719C183.365 4.35332 182.823 4.54569 182.163 4.54569C181.503 4.54569 180.961 4.35332 180.534 3.96719ZM180.148 6.17026H184.176V19.5079H180.148V6.17026Z" fill="#024059"/>
<path d="M187.454 0.916054H191.482V19.5079H187.454V0.916054Z" fill="#024059"/>
<path d="M194.505 6.17026H198.643L203.625 15.7519L208.578 6.17026H211.001L204.196 19.7803H201.719L194.506 6.17026H194.505Z" fill="#024059"/>
<path d="M222.937 17.5478C223.598 17.003 224.029 16.1872 224.23 15.0976H227.224C226.915 16.6042 226.085 17.7612 224.733 18.5686C223.381 19.3759 221.68 19.7803 219.629 19.7803C217.996 19.7803 216.58 19.5037 215.383 18.9505C214.185 18.3973 213.264 17.6026 212.619 16.5691C211.975 15.5343 211.653 14.3099 211.653 12.8946C211.653 11.4792 211.975 10.2183 212.619 9.16523C213.263 8.11355 214.185 7.30618 215.383 6.74313C216.58 6.18149 217.996 5.89926 219.629 5.89926C222.151 5.89926 224.074 6.49742 225.4 7.69513C226.724 8.89284 227.387 10.6353 227.387 12.9212H215.682V13.0841C215.682 16.6042 217.152 18.365 220.092 18.365C221.326 18.365 222.274 18.0926 222.937 17.5478ZM217.071 8.4014C216.399 9.12733 215.973 10.1622 215.791 11.5045H223.494C223.35 10.1256 222.959 9.08239 222.325 8.37471C221.69 7.66704 220.836 7.31321 219.766 7.31321C218.64 7.31321 217.743 7.67688 217.072 8.4014H217.071Z" fill="#024059"/>
<path d="M231.05 3.96719C230.624 3.58106 230.411 3.09103 230.411 2.49568C230.411 1.90034 230.624 1.4103 231.05 1.02417C231.475 0.638042 232.019 0.445679 232.679 0.445679C233.339 0.445679 233.881 0.638042 234.307 1.02417C234.733 1.4103 234.946 1.90034 234.946 2.49568C234.946 3.09103 234.733 3.58106 234.307 3.96719C233.882 4.35332 233.339 4.54569 232.679 4.54569C232.019 4.54569 231.477 4.35332 231.05 3.96719ZM230.664 6.17026H234.692V19.5079H230.664V6.17026Z" fill="#024059"/>
<path d="M237.969 6.17026H241.998V8.91951C242.342 7.95769 242.882 7.21351 243.617 6.68696C244.351 6.16042 245.272 5.89785 246.38 5.89785C246.742 5.89785 247.051 5.93436 247.305 6.00597L247.061 8.37471C246.77 8.23009 246.39 8.15708 245.918 8.15708C244.574 8.15708 243.586 8.70188 242.951 9.79007C242.315 10.8783 241.998 12.1588 241.998 13.6275V19.5065H237.969V6.16885V6.17026Z" fill="#024059"/>
<path d="M251.784 18.7048C250.813 17.9887 250.328 16.9763 250.328 15.6691C250.328 14.2903 250.9 13.2287 252.043 12.4846C253.186 11.7404 254.837 11.3683 256.997 11.3683H260.563V10.4697C260.563 9.45308 260.282 8.67379 259.719 8.12899C259.156 7.58419 258.349 7.3118 257.297 7.3118C256.245 7.3118 255.441 7.57578 254.833 8.10091C254.225 8.62746 253.848 9.39831 253.704 10.4149H250.709C250.908 8.94478 251.608 7.82429 252.805 7.05343C254.003 6.28257 255.627 5.89644 257.677 5.89644C259.927 5.89644 261.643 6.31347 262.822 7.14892C264.002 7.98437 264.591 9.19051 264.591 10.7687V15.0695C264.591 16.7208 264.728 18.1993 265 19.5065H261.244C261.063 18.8171 260.935 18.2091 260.863 17.6826C260.337 18.4268 259.66 18.9617 258.836 19.2889C258.01 19.616 257.116 19.7789 256.155 19.7789C254.214 19.7789 252.757 19.4209 251.786 18.7034L251.784 18.7048ZM259.624 17.5071C260.25 16.8991 260.563 16.0875 260.563 15.0709V12.785H258.141C256.925 12.785 255.99 13.035 255.337 13.5334C254.684 14.0333 254.357 14.7354 254.357 15.6438C254.357 16.5523 254.579 17.2628 255.024 17.7261C255.467 18.1895 256.126 18.4198 256.997 18.4198C258.121 18.4198 258.997 18.1165 259.624 17.5085V17.5071Z" fill="#024059"/>
</svg>
