<svg width="92" height="29" viewBox="0 0 92 29" fill="none" xmlns="http://www.w3.org/2000/svg">
<path d="M2.29879 0.950195H0.5V28.584H2.29879V0.950195Z" fill="white"/>
<path fill-rule="evenodd" clip-rule="evenodd" d="M2.29915 14.7666C2.29915 21.3648 7.71908 26.7847 14.3173 26.7847H29.4826L28.8018 28.5835H14.3173C9.18796 28.5835 4.68183 25.74 2.29915 21.5559C1.15495 19.5476 0.500366 17.2278 0.500366 14.7666C0.500366 12.3054 1.15495 9.98554 2.29915 7.97728C4.68183 3.79059 9.18796 0.949707 14.3173 0.949707H31.9281L31.229 2.74849H14.3173C7.71908 2.74849 2.29915 8.16842 2.29915 14.7666Z" fill="white"/>
<path d="M44.5717 15.6646H32.551V17.4633H44.5717V15.6646Z" fill="white"/>
<path fill-rule="evenodd" clip-rule="evenodd" d="M37.4683 0.949707H39.2671L49.7351 28.5835H47.9363L37.4683 0.949707Z" fill="white"/>
<path fill-rule="evenodd" clip-rule="evenodd" d="M39.2674 0.949707L38.3693 3.32452L33.693 15.6673L33.0122 17.4661L29.4827 26.7847L28.802 28.5835H27.0032L27.6839 26.7847L37.4686 0.949707H39.2674Z" fill="white"/>
<path fill-rule="evenodd" clip-rule="evenodd" d="M58.4044 0.949707H60.2032L70.6713 28.5835H68.8725L58.4044 0.949707Z" fill="white"/>
<path fill-rule="evenodd" clip-rule="evenodd" d="M79.3406 0.949707H81.1394L91.6074 28.5835H89.806L79.3406 0.949707Z" fill="white"/>
<path fill-rule="evenodd" clip-rule="evenodd" d="M60.2032 0.949707H58.4045L47.9364 28.5835H49.7352L60.2032 0.949707Z" fill="white"/>
<path fill-rule="evenodd" clip-rule="evenodd" d="M81.1394 0.949707H79.3406L68.8726 28.5835H70.6713L81.1394 0.949707Z" fill="white"/>
<path d="M91.6046 0.949707H89.8058V28.5835H91.6046V0.949707Z" fill="white"/>
</svg>
